# xmcd CD database file
#
# Track frame offsets:
#	150
#	19986
#	46812
#	66475
#
# Disc length: 1148 seconds
#
# Revision: 0
# Processed by: cddbd v1.5.1PL0 Copyright (c) Steve Scherf et al.
# Submitted via: CDex 1.51
#
DISCID=32047a04
DTITLE=HOME MADE 家族 - JOYRIDE
DYEAR=2005
DGENRE=Hip-Hop
TTITLE0=JOYRIDE
TTITLE1=学びの窓
TTITLE2=ライフワーク!?
TTITLE3=JOYRIDE (Instrumental)
EXTD=YEAR: 2005
EXTT0=
EXTT1=
EXTT2=
EXTT3=
PLAYORDER=
